# xmcd CD database file
#
# Track frame offsets:
#	150
#	18540
#	40344
#	67980
#	84334
#	110402
#	137457
#	166497
#	185643
#	210606
#
# Disc length: 3173 seconds
#
# Revision: 0
# Processed by: cddbd v1.5.2PL0 Copyright (c) Steve Scherf et al.
# Submitted via: CDex 1.70beta2
#
DISCID=830c630a
DTITLE=AAVV Armonia della Luce - ARMONIA DELLA LUCE
DYEAR=2005
DGENRE=New Age
TTITLE0=01 Easy - G-BY
TTITLE1=02 From the East to the West Coast - Armon
TTITLE2=03 Action - Horus
TTITLE3=04 Quiet Night - G-BY
TTITLE4=05 Bicycle Ride - NU
TTITLE5=06 Down - G-BY
TTITLE6=07 Oasis - Direct 2 Brain
TTITLE7=08 Moments - Soundsphere
TTITLE8=09 Hawk Eye - Palace Of Visions
TTITLE9=10 Flying Nature - Neve
EXTD=YEAR: 2005
EXTT0=
EXTT1=
EXTT2=
EXTT3=
EXTT4=
EXTT5=
EXTT6=
EXTT7=
EXTT8=
EXTT9=
PLAYORDER=
